<svg width="102" height="103" viewBox="0 0 102 103" fill="none" xmlns="http://www.w3.org/2000/svg">
<g clip-path="url(#clip0_132_831)">
<path d="M73.0164 14.4614H48.8833C47.7603 14.4614 46.8498 15.3718 46.8498 16.4949C46.8498 17.6181 47.7605 18.5284 48.8833 18.5284H73.0164C74.1393 18.5284 75.0499 17.6181 75.0499 16.4949C75.0499 15.3718 74.1391 14.4614 73.0164 14.4614Z" fill="url(#paint0_linear_132_831)"/>
<path d="M36.706 18.5285H37.5195C38.6424 18.5285 39.553 17.6182 39.553 16.495C39.553 15.3719 38.6422 14.4615 37.5195 14.4615H36.706C35.5831 14.4615 34.6725 15.3719 34.6725 16.495C34.6725 17.6182 35.5831 18.5285 36.706 18.5285Z" fill="url(#paint1_linear_132_831)"/>
<path d="M28.0633 16.495C28.0633 15.3719 27.1528 14.4615 26.0298 14.4615H10.1679C9.04491 14.4615 8.13437 15.3719 8.13437 16.495C8.13437 17.6182 9.0451 18.5285 10.1679 18.5285H26.0298C27.1526 18.5285 28.0633 17.618 28.0633 16.495Z" fill="url(#paint2_linear_132_831)"/>
<path d="M64.3142 36.0717H35.2813C34.3365 31.4362 30.2285 27.9375 25.3181 27.9375C19.7116 27.9375 15.1502 32.4987 15.1502 38.1054C15.1502 43.7119 19.7114 48.2733 25.3181 48.2733C30.2285 48.2733 34.3367 44.7746 35.2813 40.1391H54.6548V46.2398C54.6548 47.3629 55.5656 48.2733 56.6883 48.2733C57.8111 48.2733 58.7218 47.3629 58.7218 46.2398V40.1391H62.2805V43.5284C62.2805 44.6515 63.1913 45.5619 64.314 45.5619C65.4368 45.5619 66.3476 44.6515 66.3476 43.5284V38.1054C66.3478 36.982 65.4372 36.0717 64.3142 36.0717ZM25.3181 44.2059C21.9542 44.2059 19.2174 41.4691 19.2174 38.1052C19.2174 34.7413 21.9542 32.0045 25.3181 32.0045C28.682 32.0045 31.4188 34.7413 31.4188 38.1052C31.4188 41.4691 28.682 44.2059 25.3181 44.2059Z" fill="url(#paint3_linear_132_831)"/>
<path d="M91.6951 80.3602C93.8648 77.9108 95.1859 74.6933 95.1859 71.1714V64.9889C95.1859 57.9731 89.9513 52.1607 83.1833 51.2424V15.2543C83.1833 10.3317 79.1785 6.3269 74.256 6.3269H8.92742C4.00478 6.3269 0 10.3317 0 15.2543V58.0488C0 62.9724 4.00478 66.9782 8.92742 66.9782H29.9136C29.6996 71.1026 28.9561 75.1025 27.6988 78.9117H22.4797C21.3567 78.9117 20.4462 79.822 20.4462 80.9452C20.4462 82.0683 21.3567 82.9787 22.4797 82.9787H60.7048C61.8277 82.9787 62.7383 82.0683 62.7383 80.9452C62.7383 79.822 61.8275 78.9117 60.7048 78.9117H55.4859C54.2286 75.1023 53.4849 71.1022 53.2711 66.9782H67.4334V71.1714C67.4334 74.6931 68.7546 77.9108 70.9242 80.3602C65.203 82.7121 61.1623 88.3416 61.1623 94.9008C61.1623 96.024 62.0731 96.9343 63.1958 96.9343H99.4235C100.546 96.9343 101.457 96.024 101.457 94.9008C101.457 88.3414 97.4166 82.7121 91.6951 80.3602ZM81.3097 55.1798C86.7184 55.1798 91.1189 59.5801 91.1189 64.9889V71.1714C91.1189 76.5803 86.7184 80.9806 81.3097 80.9806C75.9009 80.9806 71.5004 76.5803 71.5004 71.1716V64.9891C71.5004 59.5801 75.9009 55.1798 81.3097 55.1798ZM31.9647 78.9117C33.1126 75.0791 33.7899 71.0818 33.9861 66.9782H49.1979C49.3941 71.0816 50.0712 75.0783 51.2193 78.9117H31.9647ZM67.5892 62.911H8.92742C6.24753 62.911 4.0672 60.7299 4.0672 58.0488V56.607H70.2602C68.8857 58.4146 67.9427 60.5672 67.5892 62.911ZM4.0672 52.5398V15.2543C4.0672 12.5744 6.24753 10.3941 8.92742 10.3941H74.2558C76.9357 10.3941 79.1159 12.5742 79.1159 15.2543V51.2876C77.7274 51.5092 76.4076 51.9378 75.1876 52.54H4.0672V52.5398ZM65.4071 92.8671C66.2534 88.0779 70.0358 84.2895 74.8216 83.4322C76.7592 84.4617 78.967 85.0474 81.3097 85.0474C83.6523 85.0474 85.8602 84.4615 87.7978 83.4322C92.5833 84.2895 96.3655 88.0779 97.2123 92.8671H65.4071Z" fill="url(#paint4_linear_132_831)"/>
</g>
<defs>
<linearGradient id="paint0_linear_132_831" x1="60.9498" y1="14.4614" x2="60.9498" y2="18.5284" gradientUnits="userSpaceOnUse">
<stop stop-color="#0046E6"/>
<stop offset="1" stop-color="#427CFF"/>
</linearGradient>
<linearGradient id="paint1_linear_132_831" x1="37.1128" y1="14.4615" x2="37.1128" y2="18.5285" gradientUnits="userSpaceOnUse">
<stop stop-color="#0046E6"/>
<stop offset="1" stop-color="#427CFF"/>
</linearGradient>
<linearGradient id="paint2_linear_132_831" x1="18.0989" y1="14.4615" x2="18.0989" y2="18.5285" gradientUnits="userSpaceOnUse">
<stop stop-color="#0046E6"/>
<stop offset="1" stop-color="#427CFF"/>
</linearGradient>
<linearGradient id="paint3_linear_132_831" x1="40.7489" y1="27.9375" x2="40.7489" y2="48.2733" gradientUnits="userSpaceOnUse">
<stop stop-color="#0046E6"/>
<stop offset="1" stop-color="#427CFF"/>
</linearGradient>
<linearGradient id="paint4_linear_132_831" x1="50.7285" y1="6.3269" x2="50.7285" y2="96.9343" gradientUnits="userSpaceOnUse">
<stop stop-color="#0046E6"/>
<stop offset="1" stop-color="#427CFF"/>
</linearGradient>
<clipPath id="clip0_132_831">
<rect width="101.457" height="101.457" fill="white" transform="translate(0 0.9021)"/>
</clipPath>
</defs>
</svg>
