<svg width="77" height="77" viewBox="0 0 77 77" fill="none" xmlns="http://www.w3.org/2000/svg">
<path d="M18.9699 20.5414H5.85419C5.0639 20.5423 4.30624 20.8566 3.74742 21.4155C3.1886 21.9743 2.87426 22.7319 2.87335 23.5222V71.2157C2.87426 72.006 3.1886 72.7636 3.74742 73.3225C4.30624 73.8813 5.0639 74.1956 5.85419 74.1965H18.9699C19.7602 74.1956 20.5178 73.8813 21.0767 73.3225C21.6355 72.7636 21.9498 72.006 21.9507 71.2157V23.5222C21.9498 22.7319 21.6355 21.9743 21.0767 21.4155C20.5178 20.8566 19.7602 20.5423 18.9699 20.5414ZM17.1814 69.4272H7.6427V25.3107H17.1814V69.4272Z" fill="url(#paint0_linear_134_899)"/>
<path d="M45.2013 36.0417H32.0856C31.2953 36.0427 30.5376 36.357 29.9788 36.9158C29.42 37.4746 29.1056 38.2323 29.1047 39.0226V71.2157C29.1056 72.006 29.42 72.7636 29.9788 73.3224C30.5376 73.8813 31.2953 74.1956 32.0856 74.1965H45.2013C45.9916 74.1956 46.7492 73.8813 47.3081 73.3224C47.8669 72.7636 48.1812 72.006 48.1821 71.2157V39.0226C48.1812 38.2323 47.8669 37.4746 47.3081 36.9158C46.7492 36.357 45.9916 36.0427 45.2013 36.0417ZM43.4128 69.4272H33.8741V40.8111H43.4128V69.4272Z" fill="url(#paint1_linear_134_899)"/>
<path d="M71.4327 2.65637H58.317C57.5267 2.65728 56.769 2.97162 56.2102 3.53044C55.6514 4.08926 55.3371 4.84692 55.3362 5.63721V71.2157C55.3371 72.006 55.6514 72.7637 56.2102 73.3225C56.769 73.8813 57.5267 74.1957 58.317 74.1966H71.4327C72.223 74.1957 72.9806 73.8813 73.5395 73.3225C74.0983 72.7637 74.4126 72.006 74.4135 71.2157V5.63721C74.4126 4.84692 74.0983 4.08926 73.5395 3.53044C72.9806 2.97162 72.223 2.65728 71.4327 2.65637ZM69.6442 69.4272H60.1055V7.42572H69.6442V69.4272Z" fill="url(#paint2_linear_134_899)"/>
<defs>
<linearGradient id="paint0_linear_134_899" x1="12.412" y1="20.5414" x2="12.412" y2="74.1965" gradientUnits="userSpaceOnUse">
<stop stop-color="#0046E6"/>
<stop offset="1" stop-color="#427CFF"/>
</linearGradient>
<linearGradient id="paint1_linear_134_899" x1="38.6434" y1="36.0417" x2="38.6434" y2="74.1965" gradientUnits="userSpaceOnUse">
<stop stop-color="#0046E6"/>
<stop offset="1" stop-color="#427CFF"/>
</linearGradient>
<linearGradient id="paint2_linear_134_899" x1="64.8748" y1="2.65637" x2="64.8748" y2="74.1966" gradientUnits="userSpaceOnUse">
<stop stop-color="#0046E6"/>
<stop offset="1" stop-color="#427CFF"/>
</linearGradient>
</defs>
</svg>
