<svg width="249" height="58" viewBox="0 0 249 58" fill="none" xmlns="http://www.w3.org/2000/svg">
<path d="M37.307 46.6836C37.1673 46.7696 37.0258 46.8628 36.8845 46.9362C37.0604 46.8686 37.2446 46.8275 37.4317 46.8141L37.307 46.6836Z" fill="white"/>
<path d="M54.7305 54.1214L40.9709 39.7104C43.8091 36.2328 45.3749 31.8298 45.393 27.275C45.4427 16.482 36.9398 7.66784 26.4308 7.61949C15.9219 7.57114 7.31732 16.321 7.26766 27.114C7.21801 37.907 15.7209 46.7211 26.2298 46.7695C30.5234 46.7958 34.7008 45.3219 38.0884 42.5855L51.8983 57.0363C52.271 57.4266 52.778 57.6473 53.3077 57.6499C53.8375 57.6525 54.3466 57.4368 54.7231 57.0502C55.0996 56.6637 55.3126 56.138 55.3153 55.5887C55.318 55.0394 55.1102 54.5116 54.7375 54.1214L54.7305 54.1214ZM26.2491 42.5725C17.9827 42.5345 11.2784 35.6006 11.3173 27.1326C11.3563 18.6647 18.1172 11.7927 26.3906 11.8308C34.664 11.8689 41.3614 18.7919 41.3224 27.2707C41.2834 35.7495 34.5156 42.6105 26.2491 42.5725Z" fill="white"/>
<path d="M34.7713 35.0895C34.771 35.4021 34.7017 35.7105 34.5687 35.9911C34.5202 36.0903 34.4645 36.1854 34.402 36.2756C34.1501 36.5151 33.8891 36.739 33.6189 36.9471C31.8695 38.3181 29.786 39.1557 27.6028 39.3657C25.4195 39.5757 23.2233 39.1497 21.2614 38.1357C19.2994 37.1217 17.6495 35.5599 16.4974 33.6262C15.3454 31.6925 14.7369 29.4635 14.7404 27.1903C14.744 24.917 15.3594 22.6897 16.5175 20.7591C17.6756 18.8284 19.3303 17.271 21.2955 16.2623C23.2606 15.2535 25.4581 14.8334 27.6407 15.0492C29.8232 15.265 31.9041 16.1081 33.6492 17.4837C33.7308 17.5473 33.8105 17.6127 33.8903 17.6798C34.2454 18.0154 34.4657 18.4771 34.5077 18.9734C34.5144 19.0375 34.5176 19.102 34.5172 19.1666C34.5148 19.698 34.3088 20.2067 33.9447 20.5808C33.5805 20.9549 33.088 21.1637 32.5755 21.1614C32.5128 21.1611 32.4501 21.1608 32.3875 21.1515C32.1319 21.1248 31.8842 21.0451 31.659 20.9171C31.4995 20.7755 31.3365 20.643 31.1664 20.5177C29.9773 19.631 28.5749 19.1025 27.114 18.9903C25.6531 18.8782 24.1907 19.1869 22.8881 19.8823C21.5855 20.5776 20.4935 21.6327 19.7327 22.9309C18.9719 24.2291 18.5718 25.7199 18.5767 27.2387C18.5816 28.7576 18.9913 30.2453 19.7605 31.5377C20.5296 32.83 21.6284 33.8767 22.9354 34.5622C24.2425 35.2476 25.7069 35.5451 27.167 35.4218C28.6271 35.2986 30.0261 34.7593 31.2095 33.8636C31.4646 33.6703 31.7085 33.4617 31.9401 33.2388C32.2115 33.102 32.5099 33.0323 32.8116 33.0352C33.3336 33.0404 33.8324 33.2593 34.1994 33.644C34.5664 34.0287 34.772 34.5483 34.7713 35.0895Z" fill="#48D900"/>
<path d="M34.6311 36.0529L34.402 36.272C34.4645 36.1818 34.5202 36.0867 34.5687 35.9876L34.6311 36.0529Z" fill="black"/>
<path d="M31.6556 20.9116C31.4719 20.8067 31.3055 20.6718 31.163 20.5122C31.333 20.6375 31.4961 20.7701 31.6556 20.9116Z" fill="black"/>
<path d="M33.8903 17.6765C33.8105 17.6094 33.7307 17.544 33.6492 17.4805C33.734 17.5398 33.8146 17.6053 33.8903 17.6765Z" fill="black"/>
<path d="M31.9366 33.2333C31.7051 33.4562 31.4611 33.6649 31.206 33.8582C31.3973 33.5918 31.648 33.3774 31.9366 33.2333Z" fill="black"/>
<path d="M34.402 36.2721C34.2015 36.5626 33.9317 36.7941 33.6189 36.9437C33.8868 36.7319 34.1478 36.5081 34.402 36.2721Z" fill="black"/>
<path d="M51.8557 27.3083C51.8405 31.9385 50.6537 36.4838 48.4139 40.4902C48.2805 40.7303 48.143 40.9704 48.0014 41.2104C47.7022 41.5437 47.3024 41.7615 46.8679 41.8278C46.4334 41.8941 45.9902 41.805 45.6112 41.5753C45.2321 41.3455 44.9399 40.9887 44.7827 40.5636C44.6254 40.1386 44.6125 39.6706 44.746 39.2368L44.7027 39.1915C47.5076 34.527 48.5823 28.9651 47.7269 23.5415C46.8714 18.1178 44.1439 13.2019 40.0523 9.70915C35.9607 6.21637 30.7838 4.38469 25.4855 4.55515C20.1872 4.72561 15.1285 6.88659 11.2513 10.6358C7.37413 14.3849 4.94268 19.4667 4.40966 24.9351C3.87665 30.4034 5.27839 35.8856 8.35391 40.3609C11.4294 44.8362 15.9691 47.9997 21.1278 49.2623C26.2864 50.5249 31.7124 49.8006 36.3956 47.2242C36.5597 47.1329 36.7238 47.0452 36.8844 46.9431C37.0603 46.8755 37.2446 46.8344 37.4317 46.821L37.5727 46.8217C37.8266 46.8226 38.0779 46.8754 38.3121 46.9771C38.5463 47.0788 38.7589 47.2273 38.9376 47.4142C39.1164 47.6011 39.2579 47.8228 39.354 48.0664C39.4501 48.3101 39.499 48.571 39.4978 48.8343C39.4975 48.8836 39.4973 48.9324 39.4971 48.9805C39.4758 49.267 39.3953 49.5453 39.2611 49.7967C39.1268 50.0481 38.942 50.2666 38.7191 50.4373C38.5707 50.5251 38.4205 50.6165 38.2705 50.6916C34.5123 52.7854 30.308 53.8689 26.0423 53.8432C11.8668 53.7671 0.394377 41.7676 0.461989 27.0719C0.529601 12.3762 12.112 0.482723 26.2806 0.547909C40.4491 0.613096 51.9233 12.618 51.8557 27.3083Z" fill="white"/>
<path d="M48.4139 40.4902C48.3274 40.7579 48.1868 41.0034 48.0015 41.2104C48.1442 40.9715 48.2817 40.7315 48.4139 40.4902Z" fill="black"/>
<path d="M36.3956 47.217C36.5446 47.0993 36.7093 47.0046 36.8844 46.9358C36.7238 47.0326 36.5597 47.1257 36.3956 47.217Z" fill="black"/>
<path d="M59.4621 27.1862C59.4933 20.399 65.367 14.7281 72.2249 14.7596C73.9649 14.7683 75.6847 15.1355 77.2795 15.838C78.8744 16.5407 80.3107 17.5645 81.5007 18.8468L77.7602 22.205C76.3752 20.5817 74.398 19.4833 72.2032 19.4732C68.2001 19.4548 64.7728 23.0245 64.7536 27.2037C64.7342 31.424 68.1285 35.0274 72.1315 35.0458C74.3263 35.0559 76.3136 33.9757 77.7134 32.3629L81.4229 35.7577C80.2164 37.0228 78.7699 38.0292 77.1697 38.7168C75.5696 39.4044 73.8488 39.7589 72.1098 39.7594C65.252 39.7347 59.4309 33.9757 59.4621 27.1862Z" fill="white"/>
<path d="M95.4915 20.868L95.4723 25.0543C91.7968 25.0373 89.4377 27.1374 89.4225 30.4395L89.3839 38.8386L84.4089 38.8157L84.4898 21.2263L89.4582 21.2491L89.4432 24.5159C89.9984 23.3943 90.863 22.4551 91.9348 21.8087C93.0064 21.1625 94.2405 20.8359 95.4915 20.868Z" fill="white"/>
<path d="M110.918 33.7923L114.101 37.1432C112.512 38.8211 109.444 39.9312 106.831 39.9191C101.532 39.8948 97.4223 35.908 97.448 30.3234C97.4732 24.8506 101.448 20.8942 106.65 20.9181C112.223 20.9438 115.471 25.2778 115.44 32.1325L102.6 32.0734C103.176 34.044 104.718 35.3851 106.816 35.3948C108.227 35.3944 109.951 34.7342 110.918 33.7923ZM102.677 28.3795L110.623 28.4161C110.151 26.6238 108.85 25.4594 106.819 25.45C105.916 25.4333 105.031 25.7072 104.289 26.2331C103.547 26.759 102.987 27.5101 102.686 28.3796L102.677 28.3795Z" fill="white"/>
<path d="M137.519 15.0601L137.406 39.6365L132.427 39.6136L132.439 37.011C131.751 37.9624 130.854 38.7308 129.822 39.2521C128.789 39.7736 127.652 40.0329 126.503 40.0087C121.807 39.9871 118.422 36.0333 118.448 30.4422C118.473 24.8877 121.894 20.9652 126.59 20.9868C127.739 20.9734 128.874 21.243 129.902 21.7732C130.929 22.3038 131.82 23.0797 132.499 24.0367L132.54 15.0372L137.519 15.0601ZM132.478 30.5068C132.492 27.4841 130.63 25.3295 128.009 25.3174C125.253 25.3047 123.303 27.4418 123.289 30.4645C123.275 33.5237 125.206 35.6787 127.961 35.6913C130.573 35.7034 132.455 33.5659 132.469 30.5067L132.478 30.5068Z" fill="white"/>
<path d="M141.511 16.6932C141.521 16.1724 141.704 15.6658 142.039 15.237C142.373 14.8081 142.844 14.4759 143.391 14.2821C143.939 14.0882 144.539 14.0413 145.117 14.1471C145.695 14.2529 146.225 14.5069 146.641 14.8772C147.057 15.2474 147.339 15.7176 147.454 16.2288C147.568 16.7398 147.51 17.2694 147.285 17.7507C147.06 18.2323 146.68 18.6444 146.191 18.9357C145.702 19.2267 145.126 19.384 144.536 19.3878C144.137 19.3866 143.742 19.3158 143.374 19.1797C143.006 19.0433 142.672 18.8444 142.391 18.594C142.11 18.3438 141.887 18.047 141.736 17.7208C141.585 17.3946 141.509 17.0455 141.511 16.6932ZM141.717 21.7552L147.261 21.7807L147.182 39.1044L141.637 39.0789L141.717 21.7552Z" fill="white"/>
<path d="M162.411 38.6322C161.249 39.5988 159.783 40.1374 158.263 40.1555C155.101 40.141 152.882 37.9051 152.897 34.7135L152.937 26.0335L150.468 26.0222L150.487 21.9871L152.956 21.9985L152.978 17.131L157.847 17.1534L157.825 22.0209L161.721 22.0388L161.703 26.0828L157.806 26.0649L157.77 33.9481C157.765 35.1143 158.527 35.9413 159.466 35.9456C160.162 35.9488 160.859 35.7117 161.208 35.3705L162.411 38.6322Z" fill="white"/>
<path d="M164.461 27.6691C164.492 20.8819 170.366 15.211 177.224 15.2425C178.964 15.2512 180.683 15.6184 182.278 16.3209C183.873 17.0236 185.309 18.0474 186.5 19.3297L182.759 22.6879C181.374 21.0647 179.395 19.9662 177.202 19.9561C173.199 19.9377 169.772 23.5074 169.752 27.6866C169.733 31.9069 173.127 35.5103 177.13 35.5287C179.323 35.5388 181.312 34.4586 182.712 32.8458L186.422 36.2406C185.215 37.5057 183.769 38.5121 182.169 39.1997C180.568 39.8873 178.848 40.2418 177.109 40.2423C170.251 40.2176 164.43 34.4586 164.461 27.6691Z" fill="#47D800"/>
<path d="M206.46 28.0803L206.408 39.3768L201.546 39.3544L201.593 29.1236C201.603 26.9254 200.231 25.4075 198.229 25.3983C196.127 25.3886 194.499 26.8927 194.49 28.8145L194.441 39.3217L189.408 39.2986L189.518 15.2988L194.552 15.322L194.513 23.7336C195.624 22.1937 197.595 21.1727 199.87 21.1832C203.732 21.201 206.478 24.0629 206.46 28.0803Z" fill="#47D800"/>
<path d="M222.917 34.3074L226.102 37.6583C224.511 39.3362 221.445 40.4463 218.829 40.4343C213.531 40.4099 209.421 36.4231 209.447 30.8386C209.472 25.3657 213.446 21.4093 218.649 21.4332C224.233 21.4589 227.47 25.7929 227.439 32.6476L214.606 32.5886C215.182 34.5592 216.724 35.9003 218.835 35.91C220.226 35.9096 221.949 35.2493 222.917 34.3074ZM214.676 28.8946L222.624 28.9312C222.15 27.1389 220.851 25.9745 218.818 25.9652C217.915 25.9487 217.03 26.2228 216.288 26.7487C215.546 27.2746 214.986 28.0254 214.685 28.8947L214.676 28.8946Z" fill="#47D800"/>
<path d="M241.303 29.6546L248.338 39.57L242.359 39.5425L237.837 32.8632L235.62 35.1527L235.6 39.5003L230.407 39.4764L230.518 15.4878L235.711 15.5117L235.647 29.4057L242.513 21.7848L248.489 21.8123L241.303 29.6546Z" fill="#47D800"/>
<path d="M128.514 16.0183C128.143 15.7544 127.807 15.4152 127.519 15.0137C127.862 15.3289 128.192 15.6622 128.514 16.0183Z" fill="white"/>
<path d="M133.546 9.0417C133.217 8.69759 132.888 8.36274 132.551 8.03711C132.901 8.34084 133.234 8.67657 133.546 9.0417Z" fill="white"/>
<path d="M129.385 44.0229C128.749 44.733 128.078 45.3977 127.376 46.0137C127.903 45.1652 128.592 44.4821 129.385 44.0229Z" fill="white"/>
</svg>
