<svg width="249" height="59" viewBox="0 0 249 59" fill="none" xmlns="http://www.w3.org/2000/svg">
<g clip-path="url(#clip0_117_797)">
<path d="M37.3068 46.6833C37.1672 46.7693 37.0257 46.8626 36.8843 46.9359C37.0602 46.8684 37.2445 46.8273 37.4316 46.8139L37.3068 46.6833Z" fill="#0046E6"/>
<path d="M54.7304 54.1214L40.9708 39.7104C43.809 36.2328 45.3748 31.8298 45.3929 27.275C45.4426 16.482 36.9397 7.66784 26.4307 7.61949C15.9218 7.57114 7.31723 16.321 7.26757 27.114C7.21792 37.907 15.7208 46.7211 26.2297 46.7695C30.5233 46.7958 34.7007 45.3219 38.0883 42.5855L51.8982 57.0363C52.2709 57.4266 52.7779 57.6473 53.3076 57.6499C53.8374 57.6525 54.3465 57.4368 54.723 57.0502C55.0995 56.6637 55.3125 56.138 55.3152 55.5887C55.3179 55.0394 55.1101 54.5116 54.7374 54.1214L54.7304 54.1214ZM26.249 42.5725C17.9826 42.5345 11.2783 35.6006 11.3172 27.1326C11.3562 18.6647 18.1171 11.7927 26.3905 11.8308C34.6639 11.8689 41.3613 18.7919 41.3223 27.2707C41.2833 35.7495 34.5155 42.6105 26.249 42.5725Z" fill="#0046E6"/>
<path d="M34.7712 35.0895C34.7709 35.4021 34.7016 35.7105 34.5686 35.9911C34.5201 36.0903 34.4644 36.1854 34.4019 36.2756C34.15 36.5151 33.889 36.739 33.6188 36.9471C31.8694 38.3181 29.7859 39.1557 27.6027 39.3657C25.4195 39.5757 23.2233 39.1497 21.2613 38.1357C19.2993 37.1217 17.6494 35.5599 16.4973 33.6262C15.3453 31.6925 14.7368 29.4635 14.7403 27.1903C14.7439 24.917 15.3593 22.6897 16.5174 20.7591C17.6755 18.8284 19.3302 17.271 21.2954 16.2623C23.2605 15.2535 25.458 14.8334 27.6406 15.0492C29.8231 15.265 31.9041 16.1081 33.6491 17.4837C33.7307 17.5473 33.8105 17.6127 33.8902 17.6798C34.2453 18.0154 34.4656 18.4771 34.5076 18.9734C34.5143 19.0375 34.5175 19.102 34.5171 19.1666C34.5147 19.698 34.3087 20.2067 33.9446 20.5808C33.5804 20.9549 33.0879 21.1637 32.5754 21.1614C32.5127 21.1611 32.45 21.1608 32.3874 21.1515C32.1319 21.1248 31.8841 21.0451 31.6589 20.9171C31.4994 20.7755 31.3364 20.643 31.1663 20.5177C29.9772 19.631 28.5748 19.1025 27.1139 18.9903C25.653 18.8782 24.1906 19.1869 22.888 19.8823C21.5854 20.5776 20.4934 21.6327 19.7326 22.9309C18.9718 24.2291 18.5717 25.7199 18.5766 27.2387C18.5815 28.7576 18.9912 30.2453 19.7604 31.5377C20.5295 32.83 21.6283 33.8767 22.9354 34.5622C24.2424 35.2476 25.7068 35.5451 27.1669 35.4218C28.627 35.2986 30.026 34.7593 31.2094 33.8636C31.4645 33.6703 31.7085 33.4617 31.94 33.2388C32.2115 33.102 32.5098 33.0323 32.8115 33.0352C33.3335 33.0404 33.8323 33.2593 34.1993 33.644C34.5663 34.0287 34.7719 34.5483 34.7712 35.0895Z" fill="#48D900"/>
<path d="M34.631 36.0529L34.4019 36.272C34.4644 36.1818 34.5201 36.0867 34.5686 35.9876L34.631 36.0529Z" fill="black"/>
<path d="M31.6555 20.9116C31.4717 20.8067 31.3054 20.6718 31.1629 20.5122C31.3329 20.6375 31.496 20.7701 31.6555 20.9116Z" fill="black"/>
<path d="M33.8903 17.6763C33.8105 17.6091 33.7307 17.5438 33.6492 17.4802C33.7339 17.5395 33.8145 17.605 33.8903 17.6763Z" fill="black"/>
<path d="M31.9366 33.2333C31.705 33.4562 31.461 33.6649 31.2059 33.8582C31.3973 33.5918 31.648 33.3774 31.9366 33.2333Z" fill="black"/>
<path d="M34.4019 36.2721C34.2015 36.5626 33.9316 36.7941 33.6188 36.9437C33.8867 36.7319 34.1478 36.5081 34.4019 36.2721Z" fill="black"/>
<path d="M51.8556 27.3083C51.8405 31.9385 50.6537 36.4838 48.4138 40.4902C48.2804 40.7303 48.1429 40.9704 48.0013 41.2104C47.7021 41.5437 47.3023 41.7615 46.8678 41.8278C46.4334 41.8941 45.9901 41.805 45.6111 41.5753C45.232 41.3455 44.9398 40.9887 44.7826 40.5636C44.6253 40.1386 44.6124 39.6706 44.7459 39.2368L44.7026 39.1915C47.5075 34.527 48.5823 28.9651 47.7268 23.5415C46.8713 18.1178 44.1438 13.2019 40.0522 9.70915C35.9606 6.21637 30.7837 4.38469 25.4854 4.55515C20.1871 4.72561 15.1284 6.88659 11.2512 10.6358C7.37403 14.3849 4.94259 19.4667 4.40957 24.9351C3.87656 30.4034 5.2783 35.8856 8.35382 40.3609C11.4293 44.8362 15.969 47.9997 21.1277 49.2623C26.2863 50.5249 31.7123 49.8006 36.3955 47.2242C36.5596 47.1329 36.7237 47.0452 36.8843 46.9431C37.0602 46.8755 37.2445 46.8344 37.4316 46.821L37.5726 46.8217C37.8265 46.8226 38.0778 46.8754 38.312 46.9771C38.5462 47.0788 38.7588 47.2273 38.9375 47.4142C39.1163 47.6011 39.2578 47.8228 39.3539 48.0664C39.45 48.3101 39.4989 48.571 39.4977 48.8343C39.4974 48.8836 39.4972 48.9324 39.497 48.9805C39.4757 49.267 39.3952 49.5453 39.261 49.7967C39.1267 50.0481 38.9419 50.2666 38.719 50.4373C38.5706 50.5251 38.4205 50.6165 38.2704 50.6916C34.5122 52.7854 30.3079 53.8689 26.0422 53.8432C11.8667 53.7671 0.394286 41.7676 0.461898 27.0719C0.529509 12.3762 12.1119 0.482723 26.2805 0.547909C40.449 0.613096 51.9232 12.618 51.8556 27.3083Z" fill="#1B60FC"/>
<path d="M48.4138 40.4902C48.3273 40.7579 48.1866 41.0034 48.0013 41.2104C48.1441 40.9715 48.2815 40.7315 48.4138 40.4902Z" fill="black"/>
<path d="M36.3955 47.217C36.5445 47.0993 36.7092 47.0046 36.8843 46.9358C36.7237 47.0326 36.5596 47.1257 36.3955 47.217Z" fill="black"/>
<path d="M38.7121 50.4283C38.5743 50.5337 38.4234 50.6192 38.2635 50.6826C38.4135 50.6075 38.5637 50.5143 38.7121 50.4283Z" fill="black"/>
</g>
<path d="M59.462 27.1859C59.4932 20.3988 65.3669 14.7278 72.2247 14.7594C73.9647 14.7681 75.6846 15.1352 77.2794 15.8377C78.8743 16.5405 80.3105 17.5643 81.5006 18.8466L77.76 22.2048C76.3751 20.5815 74.3978 19.483 72.2031 19.4729C68.2 19.4545 64.7727 23.0243 64.7535 27.2034C64.734 31.4237 68.1284 35.0271 72.1314 35.0455C74.3262 35.0556 76.3135 33.9754 77.7133 32.3627L81.4228 35.7574C80.2163 37.0226 78.7697 38.029 77.1696 38.7166C75.5695 39.4041 73.8486 39.7587 72.1097 39.7591C65.2519 39.7344 59.4308 33.9754 59.462 27.1859Z" fill="#0046E6"/>
<path d="M95.4914 20.868L95.4722 25.0543C91.7967 25.0373 89.4376 27.1374 89.4224 30.4395L89.3838 38.8386L84.4087 38.8157L84.4897 21.2263L89.4581 21.2491L89.443 24.5159C89.9983 23.3943 90.8628 22.4551 91.9347 21.8087C93.0063 21.1625 94.2404 20.8359 95.4914 20.868Z" fill="#0046E6"/>
<path d="M110.918 33.7921L114.101 37.1429C112.512 38.8208 109.444 39.9309 106.831 39.9189C101.532 39.8945 97.4223 35.9077 97.448 30.3232C97.4731 24.8504 101.447 20.8939 106.65 20.9179C112.223 20.9435 115.471 25.2775 115.44 32.1322L102.6 32.0731C103.176 34.0438 104.718 35.3849 106.816 35.3945C108.227 35.3942 109.951 34.734 110.918 33.7921ZM102.677 28.3793L110.623 28.4158C110.151 26.6235 108.849 25.4591 106.819 25.4498C105.916 25.4331 105.031 25.707 104.289 26.2329C103.547 26.7587 102.987 27.5098 102.686 28.3793L102.677 28.3793Z" fill="#0046E6"/>
<path d="M137.519 15.0598L137.406 39.6363L132.427 39.6134L132.439 37.0107C131.751 37.9621 130.854 38.7306 129.822 39.2518C128.789 39.7733 127.651 40.0327 126.503 40.0085C121.807 39.9869 118.422 36.033 118.448 30.442C118.473 24.8875 121.894 20.9649 126.59 20.9866C127.739 20.9731 128.874 21.2427 129.902 21.773C130.929 22.3035 131.819 23.0795 132.499 24.0365L132.54 15.0369L137.519 15.0598ZM132.478 30.5065C132.492 27.4838 130.63 25.3292 128.009 25.3172C125.253 25.3045 123.303 27.4416 123.289 30.4643C123.275 33.5235 125.206 35.6784 127.961 35.6911C130.573 35.7031 132.455 33.5657 132.469 30.5065L132.478 30.5065Z" fill="#0046E6"/>
<path d="M141.511 16.6935C141.521 16.1726 141.704 15.6661 142.039 15.2372C142.373 14.8084 142.844 14.4761 143.391 14.2824C143.939 14.0884 144.539 14.0416 145.117 14.1474C145.695 14.2532 146.225 14.5071 146.641 14.8774C147.057 15.2477 147.339 15.7179 147.454 16.2291C147.568 16.7401 147.51 17.2696 147.285 17.751C147.06 18.2325 146.68 18.6446 146.191 18.9359C145.702 19.227 145.126 19.3842 144.536 19.388C144.137 19.3869 143.742 19.3161 143.374 19.1799C143.006 19.0435 142.671 18.8446 142.391 18.5942C142.109 18.344 141.887 18.0473 141.736 17.7211C141.585 17.3949 141.509 17.0457 141.511 16.6935ZM141.717 21.7554L147.261 21.781L147.182 39.1047L141.637 39.0792L141.717 21.7554Z" fill="#0046E6"/>
<path d="M162.41 38.6322C161.249 39.5988 159.783 40.1374 158.263 40.1555C155.101 40.141 152.882 37.9051 152.897 34.7135L152.937 26.0335L150.468 26.0222L150.487 21.9871L152.956 21.9985L152.978 17.131L157.847 17.1534L157.825 22.0209L161.721 22.0388L161.702 26.0828L157.806 26.0649L157.77 33.9481C157.765 35.1143 158.527 35.9413 159.466 35.9456C160.162 35.9488 160.859 35.7117 161.208 35.3705L162.41 38.6322Z" fill="#0046E6"/>
<path d="M164.461 27.6691C164.492 20.8819 170.366 15.211 177.224 15.2425C178.964 15.2512 180.683 15.6184 182.278 16.3209C183.873 17.0236 185.309 18.0474 186.499 19.3297L182.759 22.6879C181.374 21.0647 179.394 19.9662 177.202 19.9561C173.199 19.9377 169.772 23.5074 169.752 27.6866C169.733 31.9069 173.127 35.5103 177.13 35.5287C179.323 35.5388 181.312 34.4586 182.712 32.8458L186.422 36.2406C185.215 37.5057 183.769 38.5121 182.169 39.1997C180.568 39.8873 178.848 40.2418 177.109 40.2423C170.251 40.2176 164.43 34.4586 164.461 27.6691Z" fill="#47D800"/>
<path d="M206.459 28.0805L206.407 39.377L201.546 39.3547L201.593 29.1238C201.603 26.9256 200.231 25.4077 198.229 25.3985C196.127 25.3888 194.498 26.8929 194.49 28.8147L194.441 39.322L189.408 39.2988L189.518 15.2991L194.552 15.3222L194.513 23.7338C195.624 22.1939 197.595 21.173 199.87 21.1835C203.732 21.2012 206.478 24.0631 206.459 28.0805Z" fill="#47D800"/>
<path d="M222.916 34.3074L226.102 37.6583C224.511 39.3362 221.445 40.4463 218.829 40.4343C213.531 40.4099 209.421 36.4231 209.447 30.8386C209.472 25.3657 213.446 21.4093 218.649 21.4332C224.233 21.4589 227.47 25.7929 227.439 32.6476L214.606 32.5886C215.182 34.5592 216.724 35.9003 218.835 35.91C220.226 35.9096 221.949 35.2493 222.916 34.3074ZM214.676 28.8946L222.624 28.9312C222.15 27.1389 220.851 25.9745 218.818 25.9652C217.915 25.9487 217.03 26.2228 216.288 26.7487C215.546 27.2746 214.986 28.0254 214.685 28.8947L214.676 28.8946Z" fill="#47D800"/>
<path d="M241.303 29.6546L248.338 39.57L242.359 39.5425L237.837 32.8632L235.62 35.1527L235.6 39.5003L230.407 39.4764L230.518 15.4878L235.711 15.5117L235.647 29.4057L242.513 21.7848L248.489 21.8123L241.303 29.6546Z" fill="#47D800"/>
<path d="M128.514 16.0185C128.143 15.7546 127.807 15.4155 127.519 15.0139C127.862 15.3291 128.192 15.6625 128.514 16.0185Z" fill="#0046E6"/>
<path d="M133.546 9.04146C133.217 8.69734 132.888 8.36249 132.551 8.03687C132.901 8.3406 133.234 8.67632 133.546 9.04146Z" fill="#0046E6"/>
<path d="M129.385 44.0226C128.748 44.7327 128.078 45.3975 127.376 46.0134C127.902 45.1649 128.592 44.4819 129.385 44.0226Z" fill="white"/>
<defs>
<clipPath id="clip0_117_797">
<rect width="55" height="57" fill="white" transform="translate(0.584473 0.429688) rotate(0.263604)"/>
</clipPath>
</defs>
</svg>
