<svg width="82" height="82" viewBox="0 0 82 82" fill="none" xmlns="http://www.w3.org/2000/svg">
<g clip-path="url(#clip0_133_855)">
<path d="M74.73 21.7016C74.6885 19.5207 74.6489 17.4603 74.6489 15.4671C74.6489 13.9056 73.3833 12.6396 71.8214 12.6396C59.7291 12.6396 50.5224 9.16444 42.8481 1.70283C41.7503 0.635164 40.0033 0.635541 38.9058 1.70283C31.2324 9.16444 22.0271 12.6396 9.93557 12.6396C8.37403 12.6396 7.10806 13.9056 7.10806 15.4671C7.10806 17.4607 7.06885 19.5218 7.027 21.7031C6.63945 41.9993 6.10863 69.796 39.9509 81.5264C40.251 81.6304 40.5639 81.6825 40.8768 81.6825C41.1897 81.6825 41.503 81.6304 41.8027 81.5264C75.6476 69.7956 75.1175 41.9982 74.73 21.7016ZM40.8772 75.8544C11.853 65.3108 12.2918 42.2139 12.6813 21.8109C12.7046 20.5864 12.7273 19.3996 12.7431 18.2362C24.0682 17.7582 33.1245 14.3263 40.8772 7.57274C48.6306 14.3263 57.6884 17.7586 69.0143 18.2362C69.0301 19.3993 69.0527 20.5853 69.0761 21.8091C69.4651 42.2127 69.9036 65.3104 40.8772 75.8544Z" fill="url(#paint0_linear_133_855)"/>
<path d="M50.614 31.4701L36.9669 45.1164L31.1434 39.2928C30.0392 38.189 28.2488 38.189 27.1449 39.2928C26.0407 40.3975 26.0407 42.1875 27.1449 43.2917L34.9677 51.1145C35.5196 51.6664 36.2435 51.9424 36.9669 51.9424C37.6904 51.9424 38.4142 51.6664 38.9662 51.1145L54.6121 35.4689C55.7167 34.3647 55.7167 32.5743 54.6125 31.4705C53.5086 30.3662 51.7182 30.3658 50.614 31.4701Z" fill="url(#paint1_linear_133_855)"/>
</g>
<defs>
<linearGradient id="paint0_linear_133_855" x1="40.8785" y1="0.902222" x2="40.8785" y2="81.6825" gradientUnits="userSpaceOnUse">
<stop stop-color="#0046E6"/>
<stop offset="1" stop-color="#427CFF"/>
</linearGradient>
<linearGradient id="paint1_linear_133_855" x1="40.8787" y1="30.6421" x2="40.8787" y2="51.9424" gradientUnits="userSpaceOnUse">
<stop stop-color="#0046E6"/>
<stop offset="1" stop-color="#427CFF"/>
</linearGradient>
<clipPath id="clip0_133_855">
<rect width="80.78" height="80.78" fill="white" transform="translate(0.488647 0.9021)"/>
</clipPath>
</defs>
</svg>
