<svg width="82" height="83" viewBox="0 0 82 83" fill="none" xmlns="http://www.w3.org/2000/svg">
<g clip-path="url(#clip0_133_874)">
<path d="M7.77145 23.9882C8.47096 24.3379 10.4529 25.3872 12.618 22.9556C13.4841 21.7398 14.3501 20.524 15.3827 19.3248C16.5986 17.9425 16.4153 15.694 15.033 14.4782C13.6506 13.2624 11.4022 13.4456 10.1864 14.828C8.9706 16.2103 7.7548 17.7759 6.72219 19.3248C5.70624 20.8737 6.22254 22.9389 7.77145 23.9882Z" fill="url(#paint0_linear_133_874)"/>
<path d="M41.5643 7.69971C44.862 7.69971 48.143 8.21601 51.2741 9.26527C53.3726 9.8815 54.9049 8.56576 55.6044 7.1834C56.1207 5.28474 55.0881 3.36943 53.356 2.85313C49.542 1.63732 45.728 0.954468 41.7475 0.954468C39.8488 0.954468 38.2833 2.33683 38.2833 4.25214C38.2833 6.16745 39.6656 7.69971 41.5643 7.69971Z" fill="url(#paint1_linear_133_874)"/>
<path d="M72.4092 28.8348C73.625 31.7827 74.3078 34.8972 74.6576 38.0116C74.6576 38.0116 74.8574 41.8756 78.4716 41.3093C82.0524 40.843 81.586 37.3288 81.586 37.3288C81.2363 33.5148 80.2037 29.7008 78.8213 26.2366C77.9553 24.5045 76.0566 23.6384 74.3245 24.338C72.5757 25.204 71.7097 27.1027 72.4092 28.8348Z" fill="url(#paint2_linear_133_874)"/>
<path d="M59.9346 13.5956C62.6993 15.4943 65.131 17.7593 67.2128 20.3575C68.7617 22.2895 71.3766 21.49 71.8929 20.8738C73.2752 19.658 73.625 17.4096 72.4092 16.0272C69.9775 13.0793 67.0296 10.3146 63.7486 8.04951C62.183 7.01691 60.1178 7.35001 59.0686 8.91557C58.0193 10.4811 58.3691 12.5463 59.9346 13.5956Z" fill="url(#paint3_linear_133_874)"/>
<path d="M22.511 13.0627C25.2758 11.3306 28.4069 9.94822 31.5213 9.08217C33.42 8.56586 34.4693 6.65055 33.953 4.91844C33.4367 3.01978 31.5213 1.97052 29.7892 2.48682C25.9753 3.51943 22.3445 5.08499 19.0468 7.16685C17.4813 8.19946 16.965 10.2813 18.0142 11.8469C18.6971 12.8961 20.1627 13.9287 22.511 13.0627Z" fill="url(#paint4_linear_133_874)"/>
<path d="M78.1218 45.6397C76.2231 45.1234 74.491 46.3392 74.1413 48.2378C73.7915 49.8034 72.7256 53.4508 72.709 53.8006C68.1289 65.7088 57.1366 74.0863 44.5122 75.4353C32.0876 76.7344 19.9962 71.1217 12.9844 61.0288L19.3966 62.4445C21.1287 62.7942 23.0274 61.745 23.3771 59.8463C23.7269 58.1142 22.6776 56.2155 20.7789 55.8658L7.27181 52.9179C6.40576 52.7513 3.70766 52.9179 3.10809 55.516L0.160169 69.2064C-0.189584 70.9385 0.859675 72.8371 2.75833 73.1869C4.87351 73.4034 6.38911 72.1543 6.92206 70.4222L7.95467 65.7255C15.6659 76.1681 29.5894 83.896 45.2117 82.2138C60.9672 80.515 74.3245 69.9059 79.5208 55.0164C79.6874 54.5834 80.4701 50.9526 80.7366 49.6368C81.2529 47.7215 80.0371 45.9894 78.1218 45.6397Z" fill="url(#paint5_linear_133_874)"/>
<path d="M27.5075 45.1233H43.4796C45.3782 45.1233 46.7773 43.5577 46.9438 41.6591V17.9758C46.9438 16.0772 45.3782 14.5116 43.4796 14.5116C41.5809 14.5116 40.0154 16.0772 40.0154 17.9758V38.1949H27.5075C25.6089 38.1949 24.0433 39.7604 24.0433 41.6591C24.0433 43.5577 25.5922 45.1233 27.5075 45.1233Z" fill="url(#paint6_linear_133_874)"/>
</g>
<defs>
<linearGradient id="paint0_linear_133_874" x1="11.1948" y1="13.6686" x2="11.1948" y2="24.5149" gradientUnits="userSpaceOnUse">
<stop stop-color="#0046E6"/>
<stop offset="1" stop-color="#427CFF"/>
</linearGradient>
<linearGradient id="paint1_linear_133_874" x1="47.0105" y1="0.954468" x2="47.0105" y2="9.42129" gradientUnits="userSpaceOnUse">
<stop stop-color="#0046E6"/>
<stop offset="1" stop-color="#427CFF"/>
</linearGradient>
<linearGradient id="paint2_linear_133_874" x1="76.8862" y1="24.0951" x2="76.8862" y2="41.366" gradientUnits="userSpaceOnUse">
<stop stop-color="#0046E6"/>
<stop offset="1" stop-color="#427CFF"/>
</linearGradient>
<linearGradient id="paint3_linear_133_874" x1="65.8102" y1="7.45654" x2="65.8102" y2="21.5741" gradientUnits="userSpaceOnUse">
<stop stop-color="#0046E6"/>
<stop offset="1" stop-color="#427CFF"/>
</linearGradient>
<linearGradient id="paint4_linear_133_874" x1="25.7748" y1="2.35571" x2="25.7748" y2="13.3863" gradientUnits="userSpaceOnUse">
<stop stop-color="#0046E6"/>
<stop offset="1" stop-color="#427CFF"/>
</linearGradient>
<linearGradient id="paint5_linear_133_874" x1="40.4746" y1="45.5205" x2="40.4746" y2="82.4444" gradientUnits="userSpaceOnUse">
<stop stop-color="#0046E6"/>
<stop offset="1" stop-color="#427CFF"/>
</linearGradient>
<linearGradient id="paint6_linear_133_874" x1="35.4936" y1="14.5116" x2="35.4936" y2="45.1233" gradientUnits="userSpaceOnUse">
<stop stop-color="#0046E6"/>
<stop offset="1" stop-color="#427CFF"/>
</linearGradient>
<clipPath id="clip0_133_874">
<rect width="81.5125" height="81.5125" fill="white" transform="translate(0.0935059 0.943237)"/>
</clipPath>
</defs>
</svg>
